<svg width="100" height="125" viewBox="0 0 100 125" fill="none" xmlns="http://www.w3.org/2000/svg">
<path d="M50 3C24 3 3 24 3 50C3 76 24 97 50 97C76 97 97 76 97 50C97 24 76 3 50 3ZM50 93C26.3 93 7 73.7 7 50C7 26.3 26.3 7 50 7C73.7 7 93 26.3 93 50C93 73.7 73.7 93 50 93Z" fill="black"/>
<path d="M65.8 48H52.1V34.2C52.1 33.1 51.2 32.2 50.1 32.2C49 32.2 48.1 33.1 48.1 34.2V48H34.3C33.2 48 32.3 48.9 32.3 50C32.3 51.1 33.2 52 34.3 52H48.1V65.8C48.1 66.9 49 67.8 50.1 67.8C51.2 67.8 52.1 66.9 52.1 65.8V52H65.9C67 52 67.9 51.1 67.9 50C67.9 48.9 67 48 65.8 48Z" fill="black"/>
</svg>
