<svg width="100" height="125" viewBox="0 0 100 125" fill="none" xmlns="http://www.w3.org/2000/svg">
<g clip-path="url(#clip0)">
<g filter="url(#filter0_di)">
<path d="M50 3C24 3 3 24 3 50C3 76 24 97 50 97C76 97 97 76 97 50C97 24 76 3 50 3ZM50 93C26.3 93 7 73.7 7 50C7 26.3 26.3 7 50 7C73.7 7 93 26.3 93 50C93 73.7 73.7 93 50 93Z" fill="white"/>
<path d="M50 93C26.3 93 7 73.7 7 50C7 26.3 26.3 7 50 7C73.7 7 93 26.3 93 50C93 73.7 73.7 93 50 93Z" fill="white"/>
</g>
<g filter="url(#filter1_d)">
<path d="M65.8 48H52.1V34.2C52.1 33.1 51.2 32.2 50.1 32.2C49 32.2 48.1 33.1 48.1 34.2V48H34.3C33.2 48 32.3 48.9 32.3 50C32.3 51.1 33.2 52 34.3 52H48.1V65.8C48.1 66.9 49 67.8 50.1 67.8C51.2 67.8 52.1 66.9 52.1 65.8V52H65.9C67 52 67.9 51.1 67.9 50C67.9 48.9 67 48 65.8 48Z" fill="#0000FF"/>
</g>
</g>
<defs>
<filter id="filter0_di" x="-1" y="3" width="102" height="102" filterUnits="userSpaceOnUse" color-interpolation-filters="sRGB">
<feFlood flood-opacity="0" result="BackgroundImageFix"/>
<feColorMatrix in="SourceAlpha" type="matrix" values="0 0 0 0 0 0 0 0 0 0 0 0 0 0 0 0 0 0 127 0"/>
<feOffset dy="4"/>
<feGaussianBlur stdDeviation="2"/>
<feColorMatrix type="matrix" values="0 0 0 0 0 0 0 0 0 0 0 0 0 0 0 0 0 0 0.25 0"/>
<feBlend mode="normal" in2="BackgroundImageFix" result="effect1_dropShadow"/>
<feBlend mode="normal" in="SourceGraphic" in2="effect1_dropShadow" result="shape"/>
<feColorMatrix in="SourceAlpha" type="matrix" values="0 0 0 0 0 0 0 0 0 0 0 0 0 0 0 0 0 0 127 0" result="hardAlpha"/>
<feOffset dy="4"/>
<feGaussianBlur stdDeviation="2"/>
<feComposite in2="hardAlpha" operator="arithmetic" k2="-1" k3="1"/>
<feColorMatrix type="matrix" values="0 0 0 0 0 0 0 0 0 0 0 0 0 0 0 0 0 0 0.25 0"/>
<feBlend mode="normal" in2="shape" result="effect2_innerShadow"/>
</filter>
<filter id="filter1_d" x="28.3" y="32.2" width="43.6" height="43.6" filterUnits="userSpaceOnUse" color-interpolation-filters="sRGB">
<feFlood flood-opacity="0" result="BackgroundImageFix"/>
<feColorMatrix in="SourceAlpha" type="matrix" values="0 0 0 0 0 0 0 0 0 0 0 0 0 0 0 0 0 0 127 0"/>
<feOffset dy="4"/>
<feGaussianBlur stdDeviation="2"/>
<feColorMatrix type="matrix" values="0 0 0 0 0 0 0 0 0 0 0 0 0 0 0 0 0 0 0.25 0"/>
<feBlend mode="normal" in2="BackgroundImageFix" result="effect1_dropShadow"/>
<feBlend mode="normal" in="SourceGraphic" in2="effect1_dropShadow" result="shape"/>
</filter>
<clipPath id="clip0">
<rect width="100" height="125" fill="white"/>
</clipPath>
</defs>
</svg>
