<svg width="66" height="66" viewBox="0 0 66 66" fill="none" xmlns="http://www.w3.org/2000/svg">
<path d="M46.6967 32.5537L62.1787 17.0718C66.0837 13.1668 66.0837 6.83475 62.1787 2.92875C58.2727 -0.97625 51.9428 -0.97625 48.0358 2.92875L32.5537 18.4107L17.0718 2.92875C13.1658 -0.97625 6.83575 -0.97625 2.92875 2.92875C-0.97625 6.83375 -0.97625 13.1658 2.92875 17.0718L18.4107 32.5537L2.92875 48.0358C-0.97625 51.9408 -0.97625 58.2727 2.92875 62.1787C4.88175 64.1317 7.44075 65.1077 9.99975 65.1077C12.5587 65.1077 15.1177 64.1317 17.0707 62.1787L32.5537 46.6967L48.0358 62.1787C49.9888 64.1317 52.5478 65.1077 55.1068 65.1077C57.6658 65.1077 60.2247 64.1317 62.1777 62.1787C66.0827 58.2737 66.0827 51.9418 62.1777 48.0358L46.6967 32.5537Z" fill="black"/>
</svg>
