<svg width="42" height="32" viewBox="0 0 42 32" fill="none" xmlns="http://www.w3.org/2000/svg">
<path d="M23.8278 29.9894L41.03 6.07953C41.4044 5.55914 41.6279 4.94553 41.676 4.30625C41.7241 3.66698 41.5948 3.02684 41.3024 2.45632C41.01 1.88579 40.5659 1.40701 40.0189 1.07268C39.4719 0.738355 38.8433 0.56145 38.2022 0.561447H3.79782C3.15674 0.561442 2.52809 0.73834 1.98108 1.07266C1.43408 1.40699 0.989942 1.88577 0.697567 2.4563C0.405191 3.02683 0.27592 3.66697 0.323985 4.30624C0.37205 4.94552 0.595588 5.55914 0.969987 6.07953L18.1722 29.9894C18.4949 30.4379 18.9196 30.8032 19.4112 31.0552C19.9029 31.3071 20.4475 31.4385 21 31.4385C21.5525 31.4385 22.097 31.3071 22.5887 31.0552C23.0804 30.8032 23.5051 30.4379 23.8278 29.9894Z" fill="black"/>
</svg>
