<svg width="96" height="58" viewBox="0 0 96 58" fill="none" xmlns="http://www.w3.org/2000/svg">
<path d="M91.6 0.399981L69.8 4.49998C67.2 4.99998 66.2 8.19998 68.1 9.99998L73.5 15.4L52.3 36.7L36.9 21.3C35 19.4 31.9 19.4 30 21.3L1.90001 49.3C6.07967e-06 51.2 6.07967e-06 54.3 1.90001 56.2C2.80001 57.1 4.10001 57.6 5.30001 57.6C6.50001 57.6 7.80001 57.1 8.70001 56.2L33.3 31.6L48.9 47C50.8 48.9 53.9 48.9 55.8 47L80.4 22.4L85.8 27.8C87.7 29.7 90.9 28.7 91.3 26.1L95.4 4.29998C95.9 1.99998 93.9 -1.91107e-05 91.6 0.399981Z" fill="black"/>
</svg>
