<svg width="96" height="58" viewBox="0 0 96 58" fill="none" xmlns="http://www.w3.org/2000/svg">
<path d="M4.35236 57.5487L26.1524 53.4487C28.7524 52.9487 29.7524 49.7487 27.8524 47.9487L22.4524 42.5487L43.6524 21.2487L59.0524 36.6487C60.9524 38.5487 64.0524 38.5487 65.9524 36.6487L94.0524 8.64869C95.9524 6.74869 95.9524 3.64869 94.0524 1.74869C93.1524 0.848692 91.8524 0.34869 90.6524 0.34869C89.4524 0.34869 88.1524 0.848692 87.2524 1.74869L62.6524 26.3487L47.0524 10.9487C45.1524 9.04869 42.0524 9.04869 40.1524 10.9487L15.5524 35.5487L10.1524 30.1487C8.25235 28.2487 5.05235 29.2487 4.65235 31.8487L0.552353 53.6487C0.0523529 55.9487 2.05236 57.9487 4.35236 57.5487Z" fill="black"/>
</svg>
