<svg width="100" height="125" viewBox="0 0 100 125" fill="none" xmlns="http://www.w3.org/2000/svg">
<rect width="100" height="125" fill="#E5E5E5"/>
<path d="M36.625 35.204H70.338L60.404 45.137C59.818 45.722 59.818 46.672 60.404 47.258C60.697 47.551 61.081 47.697 61.465 47.697C61.849 47.697 62.233 47.551 62.526 47.258L75.019 34.766C75.088 34.697 75.151 34.62 75.206 34.538C75.22 34.518 75.227 34.496 75.239 34.476C75.278 34.413 75.315 34.349 75.344 34.28C75.356 34.25 75.362 34.217 75.372 34.187C75.393 34.125 75.416 34.065 75.429 34C75.45 33.903 75.459 33.804 75.459 33.704C75.459 33.604 75.449 33.504 75.429 33.408C75.416 33.343 75.394 33.283 75.372 33.221C75.361 33.19 75.355 33.158 75.344 33.128C75.315 33.059 75.278 32.995 75.239 32.932C75.227 32.912 75.219 32.89 75.206 32.87C75.151 32.788 75.089 32.712 75.019 32.642L62.527 20.151C61.941 19.565 60.992 19.565 60.406 20.151C59.82 20.736 59.82 21.687 60.406 22.272L70.338 32.204H36.625C27.205 32.204 19.541 39.868 19.541 49.288C19.541 50.117 20.213 50.788 21.041 50.788C21.869 50.788 22.541 50.117 22.541 49.288C22.541 41.522 28.859 35.204 36.625 35.204ZM78.959 49.212C78.131 49.212 77.459 49.883 77.459 50.712C77.459 58.478 71.141 64.796 63.375 64.796H29.662L39.596 54.863C40.182 54.278 40.182 53.328 39.596 52.742C39.01 52.156 38.061 52.156 37.475 52.742L24.981 65.234C24.912 65.303 24.849 65.38 24.794 65.462C24.779 65.483 24.771 65.507 24.758 65.528C24.721 65.59 24.684 65.652 24.655 65.719C24.642 65.75 24.636 65.783 24.626 65.816C24.605 65.876 24.583 65.936 24.57 65.999C24.55 66.096 24.54 66.195 24.54 66.296C24.54 66.397 24.551 66.496 24.57 66.593C24.583 66.656 24.605 66.716 24.626 66.776C24.637 66.808 24.643 66.841 24.655 66.873C24.683 66.94 24.72 67.002 24.758 67.064C24.771 67.085 24.779 67.109 24.794 67.13C24.849 67.212 24.911 67.288 24.981 67.358L37.472 79.849C37.765 80.142 38.149 80.288 38.533 80.288C38.917 80.288 39.301 80.142 39.594 79.849C40.18 79.264 40.18 78.313 39.594 77.728L29.662 67.796H63.375C72.795 67.796 80.459 60.132 80.459 50.712C80.459 49.883 79.787 49.212 78.959 49.212Z" fill="black"/>
</svg>
