<svg width="55" height="51" viewBox="0 0 55 51" fill="none" xmlns="http://www.w3.org/2000/svg">
<path d="M53.9625 41.13L31.15 3.13951C30.7094 2.46077 30.1531 1.91345 29.5216 1.53752C28.8902 1.16158 28.1995 0.966492 27.5 0.966492C26.8005 0.966492 26.1098 1.16158 25.4784 1.53752C24.8469 1.91345 24.2906 2.46077 23.85 3.13951L1.0375 41.13C0.529116 41.9769 0.219531 42.9838 0.143438 44.0381C0.0673446 45.0924 0.227749 46.1523 0.606678 47.0991C0.985606 48.0459 1.56809 48.8422 2.28885 49.3987C3.00962 49.9552 3.84019 50.25 4.6875 50.25H50.3125C51.1598 50.25 51.9904 49.9552 52.7111 49.3987C53.4319 48.8422 54.0144 48.0459 54.3933 47.0991C54.7723 46.1523 54.9327 45.0924 54.8566 44.0381C54.7805 42.9838 54.4709 41.9769 53.9625 41.13Z" fill="black"/>
</svg>
